<svg width="60" height="60" viewBox="0 0 60 60" fill="none" xmlns="http://www.w3.org/2000/svg">
<rect width="60" height="60" rx="24" fill="white"/>
<path d="M23 38.75H19.5C18.1076 38.75 16.7723 38.1969 15.7877 37.2123C14.8031 36.2277 14.25 34.8924 14.25 33.5V19.5C14.25 18.1076 14.8031 16.7723 15.7877 15.7877C16.7723 14.8031 18.1076 14.25 19.5 14.25H40.5C41.8924 14.25 43.2277 14.8031 44.2123 15.7877C45.1969 16.7723 45.75 18.1076 45.75 19.5V28.25M21.5965 27.0271L27.0258 21.5977M43.2226 47.5H35.3416C34.7654 47.5 34.198 47.3578 33.69 47.0859C33.182 46.814 32.7489 46.4208 32.4293 45.9413L28.7072 40.3576C28.3581 39.8339 28.2012 39.2054 28.2633 38.5791C28.3253 37.9527 28.6024 37.3672 29.0475 36.9222C29.3003 36.6694 29.6004 36.4688 29.9308 36.332C30.2611 36.1952 30.6151 36.1247 30.9727 36.1247C31.3303 36.1247 31.6843 36.1952 32.0146 36.332C32.345 36.4688 32.6451 36.6694 32.8979 36.9222L34.3749 38.3992V29.125C34.3749 28.4288 34.6515 27.7612 35.1438 27.2689C35.6361 26.7766 36.3038 26.5 36.9999 26.5C37.6961 26.5 38.3638 26.7766 38.8561 27.2689C39.3484 27.7612 39.6249 28.4288 39.6249 29.125V33.5229L44.5631 34.3283C45.4569 34.4741 46.2593 34.9606 46.8019 35.6857C47.3445 36.4108 47.5849 37.3179 47.4726 38.2165L46.6956 44.434C46.5898 45.2805 46.1785 46.0593 45.539 46.6239C44.8995 47.1885 44.0757 47.5 43.2226 47.5Z" stroke="#CC0036" stroke-width="2" stroke-linecap="round" stroke-linejoin="round"/>
<path d="M19.5 20.9265C19.5014 20.5472 19.6533 20.184 19.9222 19.9165C20.1911 19.6491 20.5552 19.4993 20.9345 19.5C21.3138 19.5007 21.6773 19.6519 21.9452 19.9203C22.2131 20.1888 22.3636 20.5525 22.3636 20.9318C22.3636 21.3111 22.2131 21.6749 21.9452 21.9433C21.6773 22.2118 21.3138 22.3629 20.9345 22.3636C20.5552 22.3643 20.1911 22.2145 19.9222 21.9471C19.6533 21.6797 19.5014 21.3057 19.5 20.9265Z" fill="#CC0036"/>
<path d="M25.8119 27.2386C25.8133 26.8594 25.9651 26.4961 26.2341 26.2287C26.503 25.9613 26.8671 25.8114 27.2464 25.8122C27.6256 25.8129 27.9891 25.964 28.2571 26.2325C28.525 26.5009 28.6755 26.8647 28.6755 27.244C28.6755 27.6232 28.525 27.987 28.2571 28.2555C27.9891 28.5239 27.6256 28.6751 27.2464 28.6758C26.8671 28.6765 26.503 28.5267 26.2341 28.2593C25.9651 27.9918 25.8133 27.6179 25.8119 27.2386Z" fill="#CC0036"/>
</svg>
