<svg width="16" height="16" viewBox="0 0 16 16" fill="none" xmlns="http://www.w3.org/2000/svg">
<path d="M8.00176 3.96056C5.76582 3.96056 3.9623 5.76407 3.9623 8.00001C3.9623 10.2359 5.76582 12.0395 8.00176 12.0395C10.2377 12.0395 12.0412 10.2359 12.0412 8.00001C12.0412 5.76407 10.2377 3.96056 8.00176 3.96056ZM8.00176 10.6262C6.55684 10.6262 5.37559 9.44845 5.37559 8.00001C5.37559 6.55157 6.55332 5.37384 8.00176 5.37384C9.4502 5.37384 10.6279 6.55157 10.6279 8.00001C10.6279 9.44845 9.44668 10.6262 8.00176 10.6262ZM13.1486 3.79532C13.1486 4.31915 12.7268 4.73751 12.2064 4.73751C11.6826 4.73751 11.2643 4.31564 11.2643 3.79532C11.2643 3.27501 11.6861 2.85314 12.2064 2.85314C12.7268 2.85314 13.1486 3.27501 13.1486 3.79532ZM15.824 4.75157C15.7643 3.48947 15.476 2.3715 14.5514 1.4504C13.6303 0.529309 12.5123 0.241028 11.2502 0.177747C9.94941 0.103918 6.05059 0.103918 4.7498 0.177747C3.49121 0.237512 2.37324 0.525793 1.44863 1.44689C0.524024 2.36798 0.239258 3.48595 0.175977 4.74806C0.102148 6.04884 0.102148 9.94767 0.175977 11.2484C0.235742 12.5106 0.524024 13.6285 1.44863 14.5496C2.37324 15.4707 3.4877 15.759 4.7498 15.8223C6.05059 15.8961 9.94941 15.8961 11.2502 15.8223C12.5123 15.7625 13.6303 15.4742 14.5514 14.5496C15.4725 13.6285 15.7607 12.5106 15.824 11.2484C15.8979 9.94767 15.8979 6.05236 15.824 4.75157ZM14.1436 12.6442C13.8693 13.3332 13.3385 13.8641 12.6459 14.1418C11.6088 14.5531 9.14785 14.4582 8.00176 14.4582C6.85566 14.4582 4.39121 14.5496 3.35762 14.1418C2.66855 13.8676 2.1377 13.3367 1.85996 12.6442C1.44863 11.607 1.54355 9.14611 1.54355 8.00001C1.54355 6.85392 1.45215 4.38947 1.85996 3.35587C2.13418 2.66681 2.66504 2.13595 3.35762 1.85822C4.39473 1.44689 6.85566 1.54181 8.00176 1.54181C9.14785 1.54181 11.6123 1.4504 12.6459 1.85822C13.335 2.13243 13.8658 2.66329 14.1436 3.35587C14.5549 4.39298 14.46 6.85392 14.46 8.00001C14.46 9.14611 14.5549 11.6106 14.1436 12.6442Z" fill="#F6F6F6"/>
</svg>
