<svg width="104" height="40" viewBox="0 0 104 40" fill="none" xmlns="http://www.w3.org/2000/svg">
<g clip-path="url(#clip0_13334_4524)">
<path d="M47.3567 13.4512L54.7669 4.77681C54.8947 4.62718 54.7887 4.3963 54.5916 4.3963H47.8788C47.751 4.3963 47.648 4.29324 47.648 4.16542V1.30765C47.648 1.17982 47.751 1.07677 47.8788 1.07677H60.4593C60.5871 1.07677 60.6901 1.17982 60.6901 1.30765V2.95354C60.6901 3.00903 60.6703 3.06155 60.6346 3.10317L53.2245 11.7775C53.0967 11.9272 53.2027 12.1581 53.3998 12.1581H60.3146C60.4424 12.1581 60.5455 12.2611 60.5455 12.3889V15.2457C60.5455 15.3735 60.4424 15.4766 60.3146 15.4766H47.5321C47.4043 15.4766 47.3013 15.3735 47.3013 15.2457V13.5988C47.3013 13.5433 47.3211 13.4908 47.3567 13.4492V13.4512Z" fill="white"/>
<path d="M64.7439 15.0317C63.8107 14.5798 63.0845 13.9447 62.5654 13.1272C62.0463 12.3097 61.7868 11.3713 61.7868 10.313V6.59016C61.7868 5.45459 62.0463 4.45476 62.5654 3.58871C63.0845 2.72266 63.8107 2.04984 64.7439 1.56826C65.6771 1.08668 66.749 0.845886 67.9606 0.845886H70.2688C72.1154 0.845886 73.5965 1.36512 74.712 2.40458C75.8275 3.44404 76.3852 4.82932 76.3852 6.56043V9.38848C76.3852 9.5163 76.2822 9.61936 76.1544 9.61936H65.9406C65.8128 9.61936 65.7098 9.72241 65.7098 9.85024V10.312C65.7098 10.9472 65.9119 11.4575 66.3161 11.842C66.7203 12.2274 67.2681 12.4197 67.9606 12.4197H70.2114C70.885 12.4197 71.4279 12.271 71.842 11.9728C72.1967 11.7171 72.3988 11.3941 72.4493 11.0046C72.4642 10.8887 72.5682 10.8045 72.6861 10.8045H76.092C76.2237 10.8045 76.3297 10.9155 76.3228 11.0473C76.2822 11.9113 76.0246 12.6862 75.5491 13.3729C75.03 14.123 74.3038 14.7007 73.3706 15.105C72.4374 15.5093 71.3655 15.7114 70.1529 15.7114H67.9596C66.748 15.7114 65.6751 15.4855 64.7419 15.0337L64.7439 15.0317ZM72.2888 6.79132C72.4166 6.79132 72.5196 6.68826 72.5196 6.56043C72.5196 5.81032 72.3175 5.20884 71.9133 4.75699C71.5092 4.30514 70.9702 4.07921 70.2976 4.07921H67.9606C67.2681 4.07921 66.7104 4.32 66.2874 4.80059C65.8643 5.28217 65.6523 5.91635 65.6523 6.70511V6.79132H72.2888Z" fill="white"/>
<path d="M79.272 1.07677H82.4461C82.5739 1.07677 82.6769 1.17982 82.6769 1.30765V2.26189C82.6769 2.47196 82.9325 2.57105 83.0771 2.41746C83.3942 2.08254 83.7855 1.79418 84.2491 1.5524C84.9317 1.19667 85.6489 1.0183 86.3988 1.0183H88.1305C88.2583 1.0183 88.3614 1.12136 88.3614 1.24918V4.19316C88.3614 4.32099 88.2583 4.42404 88.1305 4.42404H86.3988C85.3795 4.42404 84.5522 4.73222 83.9172 5.34757C83.2822 5.96391 82.9652 6.75267 82.9652 7.71385V15.2467C82.9652 15.3745 82.8622 15.4776 82.7344 15.4776H79.272C79.1442 15.4776 79.0412 15.3745 79.0412 15.2467V1.30765C79.0412 1.17982 79.1442 1.07677 79.272 1.07677Z" fill="white"/>
<path d="M91.9822 15.002C91.049 14.5303 90.3278 13.8614 89.8186 12.9964C89.3084 12.1303 89.0538 11.1305 89.0538 9.99491V6.61791C89.0538 5.48233 89.3134 4.47755 89.8325 3.60159C90.3516 2.72662 91.0778 2.04785 92.011 1.56727C92.9432 1.08668 94.0161 0.845886 95.2276 0.845886H97.8242C99.0358 0.845886 100.109 1.08668 101.042 1.56727C101.975 2.04884 102.701 2.72662 103.22 3.60159C103.739 4.47755 103.999 5.48233 103.999 6.61791V9.99491C103.999 11.1305 103.739 12.1303 103.22 12.9964C102.701 13.8624 101.975 14.5313 101.042 15.002C100.109 15.4736 99.0268 15.7095 97.7955 15.7095H95.1989C93.9873 15.7095 92.9144 15.4736 91.9812 15.002H91.9822ZM97.738 12.3325C98.4493 12.3325 99.0169 12.0867 99.44 11.5962C99.863 11.1057 100.075 10.4656 100.075 9.67683V6.87752C100.075 6.08876 99.863 5.44864 99.44 4.95814C99.0169 4.46764 98.4592 4.2219 97.7667 4.2219H95.2851C94.5926 4.2219 94.0349 4.46764 93.6119 4.95814C93.1889 5.44864 92.9769 6.08876 92.9769 6.87752V9.67683C92.9769 10.4656 93.1879 11.1057 93.6119 11.5962C94.0349 12.0867 94.5827 12.3325 95.2564 12.3325H97.738Z" fill="white"/>
<path d="M49.3292 36.9991C47.9769 35.4919 47.3013 33.5131 47.3013 31.0616V18.0648C47.3013 17.937 47.4043 17.834 47.5321 17.834H52.8163C52.9441 17.834 53.0471 17.937 53.0471 18.0648V31.1458C53.0471 32.0752 53.2799 32.8293 53.7446 33.407C54.2092 33.9847 54.8224 34.2731 55.5822 34.2731H58.0331C58.9624 34.2731 59.8074 33.8856 60.5683 33.1107C61.3231 32.3418 61.8551 31.3301 62.1662 30.0756C62.1712 30.0568 62.1731 30.037 62.1731 30.0171V18.0648C62.1731 17.937 62.2762 17.834 62.404 17.834H67.6882C67.816 17.834 67.919 17.937 67.919 18.0648V38.6905C67.919 38.8184 67.816 38.9214 67.6882 38.9214H62.826C62.6982 38.9214 62.5952 38.8184 62.5952 38.6905V36.8871C62.5952 36.6711 62.3267 36.5749 62.187 36.7394C61.6213 37.4063 60.9615 37.9642 60.2077 38.4151C59.2635 38.9779 58.3551 39.2603 57.4823 39.2603H54.6936C52.4686 39.2603 50.6804 38.5072 49.3282 36.9991H49.3292Z" fill="#CC0036"/>
<path d="M102.056 19.5889C103.351 20.9831 104 22.8083 104 25.0616V38.6915C104 38.8193 103.897 38.9224 103.769 38.9224H98.485C98.3572 38.9224 98.2541 38.8193 98.2541 38.6915V25.0616C98.2541 24.2729 98.0709 23.6456 97.7053 23.1809C97.3388 22.7161 96.8603 22.4833 96.2688 22.4833H94.452C93.6634 22.4833 92.9729 22.7726 92.3815 23.3493C91.794 23.9231 91.4285 24.6851 91.2858 25.6334C91.2838 25.6453 91.2828 25.6581 91.2828 25.671V38.6905C91.2828 38.8184 91.1798 38.9214 91.052 38.9214H85.7678C85.64 38.9214 85.537 38.8184 85.537 38.6905V25.1022C85.537 24.3135 85.3537 23.6803 84.9881 23.2007C84.6216 22.7221 84.1431 22.4823 83.5517 22.4823H81.9042C81.0869 22.4823 80.3687 22.8489 79.7495 23.5812C79.1323 24.3105 78.739 25.2618 78.5696 26.437C78.5676 26.4489 78.5667 26.4608 78.5667 26.4727V38.6905C78.5667 38.8184 78.4636 38.9214 78.3358 38.9214H73.0516C72.9238 38.9214 72.8208 38.8184 72.8208 38.6905V18.0648C72.8208 17.937 72.9238 17.834 73.0516 17.834H77.9138C78.0416 17.834 78.1446 17.937 78.1446 18.0648V19.5353C78.1446 19.7563 78.424 19.8505 78.5587 19.6751C78.9936 19.1083 79.5098 18.6346 80.1091 18.2561C80.9116 17.7487 81.7209 17.4951 82.5382 17.4951H84.9039C85.9174 17.4951 86.8397 17.7626 87.6709 18.2977C88.403 18.7694 88.9984 19.4055 89.457 20.2052C89.5412 20.3528 89.7483 20.3637 89.8464 20.225C90.42 19.4154 91.0896 18.7733 91.8534 18.2967C92.7124 17.7616 93.6208 17.4941 94.5788 17.4941H96.9029C99.0427 17.4941 100.762 18.1917 102.057 19.5859L102.056 19.5889Z" fill="#CC0036"/>
<path d="M38.4051 23.8121V38.5716C38.4051 38.9521 38.097 39.2603 37.7166 39.2603H0.688512C0.308097 39.2603 0 38.9521 0 38.5716V32.5112C0 32.3814 0.0366546 32.2546 0.106001 32.1446L7.51122 20.3756C7.63703 20.1755 7.85696 20.0536 8.09373 20.0536H21.3122L15.1314 29.9597C14.8451 30.4185 15.175 31.013 15.7159 31.013H25.5899C26.4864 31.013 27.2106 30.9387 27.7634 30.7891C28.3162 30.6394 28.7501 30.3848 29.0631 30.027C29.3772 29.6683 29.5931 29.2056 29.714 28.6368C29.8329 28.07 29.8933 27.3675 29.8933 26.5301V23.8121C29.8933 23.4316 30.2014 23.1234 30.5818 23.1234H37.7186C38.099 23.1234 38.4071 23.4316 38.4071 23.8121H38.4051Z" fill="#CC0036"/>
<path d="M0 16.2941V1.53457C0 1.15406 0.308097 0.845886 0.688512 0.845886H37.7166C38.097 0.845886 38.4051 1.15406 38.4051 1.53457V7.59494C38.4051 7.72475 38.3685 7.85158 38.2991 7.96157L30.8939 19.7306C30.7681 19.9307 30.5481 20.0526 30.3114 20.0526H17.0929L23.2737 10.1465C23.56 9.68773 23.2301 9.09319 22.6892 9.09319H12.8152C11.9187 9.09319 11.1945 9.16751 10.6417 9.31713C10.0889 9.46676 9.65502 9.72142 9.34197 10.0791C9.02793 10.4378 8.81196 10.9006 8.6911 11.4694C8.57222 12.0362 8.51179 12.7387 8.51179 13.576V16.2941C8.51179 16.6746 8.2037 16.9828 7.82328 16.9828H0.688512C0.308097 16.9828 0 16.6746 0 16.2941Z" fill="#CC0036"/>
</g>
<defs>
<clipPath id="clip0_13334_4524">
<rect width="104" height="38.4144" fill="white" transform="translate(0 0.845886)"/>
</clipPath>
</defs>
</svg>
