<svg width="18" height="18" viewBox="0 0 18 18" fill="none" xmlns="http://www.w3.org/2000/svg">
<path d="M9 0C4.02942 0 0 4.02942 0 9C0 13.9706 4.02942 18 9 18C13.9706 18 18 13.9706 18 9C18 4.02942 13.9706 0 9 0ZM13.1716 6.12073C13.0362 7.54385 12.4502 10.9973 12.1519 12.5913C12.0257 13.2657 11.7773 13.4919 11.5368 13.514C11.0143 13.5621 10.6173 13.1686 10.1111 12.8368C9.31899 12.3175 8.8715 11.9943 8.10258 11.4876C7.21401 10.902 7.79004 10.5803 8.29644 10.0541C8.42897 9.91648 10.7318 7.82191 10.7763 7.63189C10.7819 7.60812 10.7872 7.51939 10.7345 7.47279C10.6817 7.4262 10.6042 7.44198 10.5481 7.45465C10.4687 7.4727 9.20326 8.30909 6.75185 9.96383C6.3927 10.2105 6.06737 10.3306 5.77586 10.3243C5.45451 10.3174 4.83637 10.1427 4.37683 9.99327C3.81321 9.81007 3.36524 9.71321 3.40425 9.40206C3.42457 9.23996 3.64776 9.07424 4.07381 8.90488C6.6975 7.76179 8.44703 7.00816 9.3224 6.644C11.8218 5.60439 12.3411 5.42381 12.6797 5.41778C12.7541 5.41655 12.9206 5.43498 13.0284 5.52248C13.1001 5.5848 13.1459 5.67178 13.1565 5.76621C13.1748 5.88344 13.1798 6.00236 13.1716 6.12073Z" fill="#F6F6F6"/>
</svg>
