<svg width="38" height="38" viewBox="0 0 38 38" fill="none" xmlns="http://www.w3.org/2000/svg">
<path d="M24.0893 16.0118C25.45 15.9623 26.739 15.3892 27.6873 14.4121C28.6356 13.435 29.1698 12.1294 29.1786 10.7678C29.1576 9.43869 28.6097 8.17231 27.6554 7.247C26.7011 6.32169 25.4184 5.81317 24.0893 5.83321M25.3333 31.1666V27.9999C25.3333 26.3202 24.6661 24.7093 23.4783 23.5215C22.2906 22.3338 20.6797 21.6666 19 21.6666H11.0833C9.40363 21.6666 7.79272 22.3338 6.60499 23.5215C5.41726 24.7093 4.75 26.3202 4.75 27.9999V31.1666M33.25 31.1666V26.4166C33.25 25.1568 32.7496 23.9486 31.8588 23.0578C30.968 22.167 29.7598 21.6666 28.5 21.6666M14.9286 16.0118C16.2893 15.9623 17.5783 15.3892 18.5266 14.4121C19.4749 13.435 20.0091 12.1294 20.0179 10.7678C19.9969 9.43869 19.449 8.17231 18.4947 7.247C17.5404 6.32169 16.2577 5.81317 14.9286 5.83321C13.5995 5.81317 12.3168 6.32169 11.3625 7.247C10.4081 8.17231 9.86027 9.43869 9.83929 10.7678C9.84767 12.1295 10.3818 13.4353 11.3302 14.4124C12.2785 15.3896 13.5677 15.9626 14.9286 16.0118Z" stroke="#CC0036" stroke-width="2" stroke-linecap="round" stroke-linejoin="round"/>
</svg>
