<svg width="165" height="41" viewBox="0 0 165 41" fill="none" xmlns="http://www.w3.org/2000/svg">
<rect width="165" height="41" rx="20.5" fill="white" fill-opacity="0.2"/>
<path d="M37.3896 17.3979L43 18.605L39.1748 22.856L39.7529 28.5278L34.5 26.229L29.2471 28.5278L29.8252 22.856L26 18.605L31.6104 17.3979L34.5 12.4722L37.3896 17.3979Z" fill="#FFCB45"/>
<path d="M61.3896 17.3979L67 18.605L63.1748 22.856L63.7529 28.5278L58.5 26.229L53.2471 28.5278L53.8252 22.856L50 18.605L55.6104 17.3979L58.5 12.4722L61.3896 17.3979Z" fill="#FFCB45"/>
<path d="M85.3896 17.3979L91 18.605L87.1748 22.856L87.7529 28.5278L82.5 26.229L77.2471 28.5278L77.8252 22.856L74 18.605L79.6104 17.3979L82.5 12.4722L85.3896 17.3979Z" fill="#FFCB45"/>
<path d="M109.39 17.3979L115 18.605L111.175 22.856L111.753 28.5278L106.5 26.229L101.247 28.5278L101.825 22.856L98 18.605L103.61 17.3979L106.5 12.4722L109.39 17.3979Z" fill="#FFCB45"/>
<path d="M133.39 17.3979L139 18.605L135.175 22.856L135.753 28.5278L130.5 26.229L125.247 28.5278L125.825 22.856L122 18.605L127.61 17.3979L130.5 12.4722L133.39 17.3979Z" fill="#FFCB45"/>
</svg>
